<svg width="600" height="400" viewBox="0 0500 400" preserveAspectRatio="xMidYmid meet" xmlns="http://www.w3.org/2000/svg">
<style>
    .point { fill: #0933da00; cursor: pointer; }
    .point:hover + .tooltip { opacity: 1; }
    .tooltip {opacity: 0; transition: opacity 0.2s; pointer-events: none; }
</style>
<rect width="100%" height="100%" fill="#0d1117" rx="10"/>
<g transform="translate(100, 0)">
<polygon points="200,172 226.63,191.348 216.458,222.652 183.542,222.652 173.37,191.348 " fill="none" stroke="#ffffff" />
<polygon points="200,144 253.259,182.695 232.916,245.305 167.084,245.305 146.741,182.695 " fill="none" stroke="#ffffff" />
<polygon points="200,116 279.889,174.043 249.374,267.957 150.626,267.957 120.111,174.043 " fill="none" stroke="#ffffff" />
<polygon points="200,88 306.518,165.39 265.832,290.61 134.168,290.61 93.4817,165.39 " fill="none" stroke="#ffffff" />
<polygon points="200,60 333.148,156.738 282.29,313.262 117.71,313.262 66.8521,156.738 " fill="none" stroke="#ffffff" />
<line x1="200" y1="200" x2="200" y2="60" stroke="#ffffff" />
<text x="200" y="39" text-anchor="middle" font-family="sans-serif" font-size="12" fill="#ffffff">Embedded Engineering</text>
<line x1="200" y1="200" x2="333.148" y2="156.738" stroke="#ffffff" />
<text x="353.12" y="150.248" text-anchor="middle" font-family="sans-serif" font-size="12" fill="#ffffff">Algorithms</text>
<line x1="200" y1="200" x2="282.29" y2="313.262" stroke="#ffffff" />
<text x="294.633" y="330.252" text-anchor="middle" font-family="sans-serif" font-size="12" fill="#ffffff">Programming</text>
<line x1="200" y1="200" x2="117.71" y2="313.262" stroke="#ffffff" />
<text x="105.367" y="330.252" text-anchor="middle" font-family="sans-serif" font-size="12" fill="#ffffff">Mathematics</text>
<line x1="200" y1="200" x2="66.8521" y2="156.738" stroke="#ffffff" />
<text x="46.8799" y="150.248" text-anchor="middle" font-family="sans-serif" font-size="12" fill="#ffffff">Physics</text>
<polygon points="200,126.5 209.986,196.755 224.687,233.979 187.657,216.989 163.384,188.103 " fill="rgba(101, 112, 239, 0.93)" stroke="#6e78ccc2" stroke-width="2" />
<circle class="point" cx="200" cy="126.5" r="5" />
<g class="tooltip">
 <rect x="185" y="96.5" width="30" height="20" rx="4" fill="#24292f" />
 <text x="200" y="110.5" text-anchor="middle" font-size="10" fill="white">21credits</text>
</g>
<circle class="point" cx="209.986" cy="196.755" r="5" />
<g class="tooltip">
 <rect x="194.986" y="166.755" width="30" height="20" rx="4" fill="#24292f" />
 <text x="209.986" y="180.755" text-anchor="middle" font-size="10" fill="white">3credits</text>
</g>
<circle class="point" cx="224.687" cy="233.979" r="5" />
<g class="tooltip">
 <rect x="209.687" y="203.979" width="30" height="20" rx="4" fill="#24292f" />
 <text x="224.687" y="217.979" text-anchor="middle" font-size="10" fill="white">12credits</text>
</g>
<circle class="point" cx="187.657" cy="216.989" r="5" />
<g class="tooltip">
 <rect x="172.657" y="186.989" width="30" height="20" rx="4" fill="#24292f" />
 <text x="187.657" y="200.989" text-anchor="middle" font-size="10" fill="white">6credits</text>
</g>
<circle class="point" cx="163.384" cy="188.103" r="5" />
<g class="tooltip">
 <rect x="148.384" y="158.103" width="30" height="20" rx="4" fill="#24292f" />
 <text x="163.384" y="172.103" text-anchor="middle" font-size="10" fill="white">11credits</text>
</g>
</g>
</svg>