<svg width="600" height="400" viewBox="0 0500 400" preserveAspectRatio="xMidYmid meet" xmlns="http://www.w3.org/2000/svg">
<style>
    .point { fill: #0933da00; cursor: pointer; }
    .point:hover + .tooltip { opacity: 1; }
    .tooltip {opacity: 0; transition: opacity 0.2s; pointer-events: none; }
</style>
<rect width="100%" height="100%" fill="#0d1117" rx="10"/>
<g transform="translate(100, 0)">
<polygon points="200,172 224.249,186 224.249,214 200,228 175.751,214 175.751,186 " fill="none" stroke="#ffffff" />
<polygon points="200,144 248.497,172 248.497,228 200,256 151.503,228 151.503,172 " fill="none" stroke="#ffffff" />
<polygon points="200,116 272.746,158 272.746,242 200,284 127.254,242 127.254,158 " fill="none" stroke="#ffffff" />
<polygon points="200,88 296.995,144 296.995,256 200,312 103.005,256 103.005,144 " fill="none" stroke="#ffffff" />
<polygon points="200,60 321.244,130 321.244,270 200,340 78.7564,270 78.7564,130 " fill="none" stroke="#ffffff" />
<line x1="200" y1="200" x2="200" y2="60" stroke="#ffffff" />
<text x="200" y="39" text-anchor="middle" font-family="sans-serif" font-size="12" fill="#ffffff">Embedded Engineering</text>
<line x1="200" y1="200" x2="321.244" y2="130" stroke="#ffffff" />
<text x="339.43" y="119.5" text-anchor="middle" font-family="sans-serif" font-size="12" fill="#ffffff">Algorithms</text>
<line x1="200" y1="200" x2="321.244" y2="270" stroke="#ffffff" />
<text x="339.43" y="280.5" text-anchor="middle" font-family="sans-serif" font-size="12" fill="#ffffff">Programming</text>
<line x1="200" y1="200" x2="200" y2="340" stroke="#ffffff" />
<text x="200" y="361" text-anchor="middle" font-family="sans-serif" font-size="12" fill="#ffffff">Mathematics</text>
<line x1="200" y1="200" x2="78.7564" y2="270" stroke="#ffffff" />
<text x="60.5699" y="280.5" text-anchor="middle" font-family="sans-serif" font-size="12" fill="#ffffff">Physics</text>
<line x1="200" y1="200" x2="78.7564" y2="130" stroke="#ffffff" />
<text x="60.5699" y="119.5" text-anchor="middle" font-family="sans-serif" font-size="12" fill="#ffffff">Chemistry</text>
<polygon points="200,62.5455 219.84,188.545 274.951,243.273 200,235.636 151.503,228 173.547,184.727 " fill="rgba(101, 112, 239, 0.93)" stroke="#6e78ccc2" stroke-width="2" />
<circle class="point" cx="200" cy="62.5455" r="5" />
<g class="tooltip">
 <rect x="185" y="32.5455" width="30" height="20" rx="4" fill="#24292f" />
 <text x="200" y="46.5455" text-anchor="middle" font-size="10" fill="white">54credits</text>
</g>
<circle class="point" cx="219.84" cy="188.545" r="5" />
<g class="tooltip">
 <rect x="204.84" y="158.545" width="30" height="20" rx="4" fill="#24292f" />
 <text x="219.84" y="172.545" text-anchor="middle" font-size="10" fill="white">9credits</text>
</g>
<circle class="point" cx="274.951" cy="243.273" r="5" />
<g class="tooltip">
 <rect x="259.951" y="213.273" width="30" height="20" rx="4" fill="#24292f" />
 <text x="274.951" y="227.273" text-anchor="middle" font-size="10" fill="white">34credits</text>
</g>
<circle class="point" cx="200" cy="235.636" r="5" />
<g class="tooltip">
 <rect x="185" y="205.636" width="30" height="20" rx="4" fill="#24292f" />
 <text x="200" y="219.636" text-anchor="middle" font-size="10" fill="white">14credits</text>
</g>
<circle class="point" cx="151.503" cy="228" r="5" />
<g class="tooltip">
 <rect x="136.503" y="198" width="30" height="20" rx="4" fill="#24292f" />
 <text x="151.503" y="212" text-anchor="middle" font-size="10" fill="white">22credits</text>
</g>
<circle class="point" cx="173.547" cy="184.727" r="5" />
<g class="tooltip">
 <rect x="158.547" y="154.727" width="30" height="20" rx="4" fill="#24292f" />
 <text x="173.547" y="168.727" text-anchor="middle" font-size="10" fill="white">12credits</text>
</g>
</g>
</svg>